<?xml version="1.0" encoding="UTF-8" standalone="no"?>
<!-- Created with Inkscape (http://www.inkscape.org/) -->

<svg
   xmlns:dc="http://purl.org/dc/elements/1.1/"
   xmlns:cc="http://creativecommons.org/ns#"
   xmlns:rdf="http://www.w3.org/1999/02/22-rdf-syntax-ns#"
   xmlns:svg="http://www.w3.org/2000/svg"
   xmlns="http://www.w3.org/2000/svg"
   xmlns:sodipodi="http://sodipodi.sourceforge.net/DTD/sodipodi-0.dtd"
   xmlns:inkscape="http://www.inkscape.org/namespaces/inkscape"
   width="67.733337mm"
   height="17.079996mm"
   viewBox="0 0 67.733338 17.079997"
   version="1.1"
   id="svg8"
   inkscape:version="0.92.3 (2405546, 2018-03-11)"
   sodipodi:docname="logo.svg">
  <defs
     id="defs2" />
  <sodipodi:namedview
     id="base"
     pagecolor="#ffffff"
     bordercolor="#666666"
     borderopacity="1.0"
     inkscape:pageopacity="0.0"
     inkscape:pageshadow="2"
     inkscape:zoom="3.959798"
     inkscape:cx="54.412351"
     inkscape:cy="37.367981"
     inkscape:document-units="mm"
     inkscape:current-layer="layer1"
     showgrid="false"
     fit-margin-top="0"
     fit-margin-left="0"
     fit-margin-right="0"
     fit-margin-bottom="0"
     inkscape:window-width="1920"
     inkscape:window-height="1137"
     inkscape:window-x="-8"
     inkscape:window-y="-8"
     inkscape:window-maximized="1" />
  <metadata
     id="metadata5">
    <rdf:RDF>
      <cc:Work
         rdf:about="">
        <dc:format>image/svg+xml</dc:format>
        <dc:type
           rdf:resource="http://purl.org/dc/dcmitype/StillImage" />
        <dc:title></dc:title>
      </cc:Work>
    </rdf:RDF>
  </metadata>
  <g
     inkscape:label="Layer 1"
     inkscape:groupmode="layer"
     id="layer1"
     transform="translate(-64.872249,-82.163196)">
    <g
       id="g924"
       transform="matrix(1.4650534,0,0,1.4650534,-30.169057,-46.15338)">
      <path
         inkscape:connector-curvature="0"
         id="path839"
         d="m 70.347866,89.244566 c -0.578377,0 -1.085539,0.192003 -1.521478,0.576211 -0.431623,0.38415 -0.7575,0.889156 -0.977629,1.515017 -0.215825,0.625833 -0.323719,1.318595 -0.323719,2.078256 0,0.759661 0.110064,1.453054 0.330193,2.078916 0.224435,0.625862 0.552479,1.130207 0.984105,1.514357 0.435942,0.38415 0.938784,0.576211 1.508528,0.576211 0.57838,0 1.083378,-0.192003 1.515006,-0.576211 0.435939,-0.38415 0.761817,-0.888495 0.97763,-1.514357 0.220129,-0.625862 0.330193,-1.319255 0.330193,-2.078916 0,-0.763966 -0.107912,-1.456728 -0.323719,-2.078256 -0.21149,-0.625861 -0.535215,-1.130867 -0.971157,-1.515017 -0.43594,-0.38415 -0.945256,-0.576211 -1.527953,-0.576211 z m 0.07769,0.47975 c 0.209826,0 0.403669,0.07892 0.583988,0.224721 l -1.793402,6.273025 c -0.140745,-0.273225 -0.259419,-0.59102 -0.350912,-0.962743 -0.1338,-0.565448 -0.2007,-1.184192 -0.2007,-1.857524 0,-0.68197 0.06905,-1.299825 0.207186,-1.8523 0.142438,-0.552476 0.34746,-0.994916 0.615068,-1.327262 0.271932,-0.332318 0.584849,-0.49786 0.938784,-0.49786 z M 71.49383,90.5815 c 0.135378,0.260596 0.249231,0.565018 0.336666,0.923251 0.133799,0.548171 0.200699,1.158276 0.200699,1.831608 0,0.694914 -0.0626,1.322928 -0.187756,1.884043 -0.125161,0.556809 -0.321558,1.009983 -0.589166,1.359606 -0.267599,0.349624 -0.58701,0.524436 -0.958208,0.524436 -0.213097,0 -0.412164,-0.0838 -0.59888,-0.240219 z"
         style="font-style:normal;font-variant:normal;font-weight:normal;font-stretch:normal;font-size:medium;line-height:1.25;font-family:Amiri;-inkscape-font-specification:Amiri;letter-spacing:0px;word-spacing:0px;fill:#214478;fill-opacity:1;stroke:none;stroke-width:0.33148789" />
      <path
         d="m 66.484536,87.64696 q 0.05684,0 0.09819,0.02584 0.09819,0.05684 0.09819,0.211874 V 98.94343 q -0.02584,0.217041 -0.19637,0.237712 -0.310059,0 -0.651123,0.01033 l -0.930176,0.05168 -0.01033,-0.01033 -0.01033,-0.03101 q -0.01034,-0.02067 -0.01034,-0.05168 0,-0.108521 0.103353,-0.165365 0.180868,-0.06201 0.516764,-0.129191 l 0.692465,-0.108521 V 88.081042 q -0.816488,-0.103353 -1.209229,-0.237711 -0.0052,0 -0.0155,-0.0052 -0.08785,-0.04651 -0.08785,-0.160197 0,-0.0155 0.0052,-0.03617 l 0.02584,-0.05685 z"
         style="font-style:normal;font-variant:normal;font-weight:normal;font-stretch:normal;font-size:medium;line-height:1.25;font-family:Amiri;-inkscape-font-specification:Amiri;letter-spacing:0px;word-spacing:0px;fill:#1a1a1a;fill-opacity:1;stroke:none;stroke-width:0.26458332"
         id="path853"
         inkscape:connector-curvature="0" />
      <path
         d="m 74.211199,87.64696 q 0,0 1.581298,-0.06201 0,0 0.02584,0.05685 0.0052,0.02067 0.0052,0.03617 0,0.113688 -0.08785,0.160197 -0.01033,0.0052 -0.0155,0.0052 -0.39274,0.134358 -1.209228,0.237711 v 10.666015 q 0,0 0.692464,0.108521 0.335897,0.06718 0.516764,0.129191 0.103353,0.05684 0.103353,0.165365 0,0.03101 -0.01033,0.05168 0,0 -0.01033,0.03101 l -0.01034,0.01033 -0.930175,-0.05168 Q 74.521257,99.18114 74.211199,99.18114 74.040666,99.16047 74.014828,98.943428 V 87.884672 q 0,-0.15503 0.09819,-0.211874 0.04134,-0.02584 0.09819,-0.02584 z"
         style="font-style:normal;font-variant:normal;font-weight:normal;font-stretch:normal;font-size:medium;line-height:1.25;font-family:Amiri;-inkscape-font-specification:Amiri;letter-spacing:0px;word-spacing:0px;fill:#1a1a1a;fill-opacity:1;stroke:none;stroke-width:0.26458332"
         id="path855"
         inkscape:connector-curvature="0" />
      <path
         d="m 78.388468,89.958016 q 0.201538,0 0.377238,-0.0052 0.1757,-0.01033 0.387574,-0.02584 0.217041,-0.0155 0.351399,-0.02067 0.0155,0.04651 0.01034,0.170532 0,0.124024 -0.03101,0.129192 -0.04651,0 -0.134359,0.0155 -0.08785,0.01034 -0.206706,0.04651 -0.113688,0.03101 -0.19637,0.108521 -0.08268,0.07235 -0.08268,0.170532 0,0.09819 0.155029,0.671794 0.129191,0.470255 0.573608,1.922363 0.444418,1.44694 0.630453,2.077392 0.258382,-0.857828 0.837158,-2.682006 0.583944,-1.829346 0.72347,-2.289266 0.04134,-0.139527 0.160197,-0.237712 0.118856,-0.103353 0.211873,-0.103353 0.04651,0 0.124024,0.165365 1.35909,4.278808 1.64331,5.115966 0.149862,-0.537434 0.366903,-1.302246 0.222208,-0.764811 0.382405,-1.333252 0.160197,-0.56844 0.33073,-1.219563 0.124023,-0.496094 0.124023,-0.72347 0,-0.113688 -0.09302,-0.201538 -0.08785,-0.08785 -0.217041,-0.124024 -0.124023,-0.04134 -0.227376,-0.05684 -0.103353,-0.02067 -0.165365,-0.02067 -0.03617,-0.0155 -0.03617,-0.134359 0,-0.124024 0.03617,-0.165365 0.956014,0.05168 1.116211,0.05168 0.211874,0 0.356568,-0.0052 0.144694,-0.01033 0.310058,-0.02584 0.165365,-0.0155 0.315227,-0.02067 0.02067,0.04134 0.01033,0.170532 -0.0052,0.129192 -0.03101,0.129192 -0.08785,0 -0.304891,0.07751 -0.217041,0.07752 -0.3514,0.191203 -0.191202,0.160197 -0.37207,0.785482 -0.237712,0.816487 -0.713135,2.480468 -0.470255,1.658814 -0.769979,2.676839 -0.03617,0.134359 -0.165364,0.24288 -0.124024,0.10852 -0.227376,0.10852 -0.02584,0 -0.06201,-0.06201 -0.03101,-0.06201 -0.04134,-0.103353 -0.144694,-0.418579 -0.372071,-1.095541 -0.222208,-0.682129 -0.449585,-1.35909 -0.222208,-0.682129 -0.418579,-1.281575 -0.19637,-0.599447 -0.325561,-0.992188 -0.129191,-0.397908 -0.124024,-0.377238 -0.273885,0.904338 -0.775146,2.439128 -0.496094,1.529622 -0.780314,2.480468 -0.03617,0.134359 -0.165365,0.24288 -0.124023,0.10852 -0.227376,0.10852 -0.02584,0 -0.06201,-0.06201 -0.03101,-0.06201 -0.04134,-0.103353 -0.346232,-1.100708 -0.904337,-2.909383 -0.552938,-1.813843 -0.749309,-2.444296 -0.01033,-0.04134 -0.04651,-0.160197 -0.03617,-0.124023 -0.04651,-0.155029 -0.01033,-0.03617 -0.04134,-0.124023 -0.03101,-0.09302 -0.05168,-0.124024 -0.0155,-0.03617 -0.04651,-0.09302 -0.031,-0.06201 -0.06718,-0.09819 -0.03101,-0.04134 -0.07235,-0.08268 -0.09819,-0.09302 -0.294556,-0.149861 Q 77.241239,90.206 77.12755,90.206 q -0.0155,0 -0.0155,-0.139527 0,-0.144694 0.0155,-0.160197 1.188558,0.05168 1.260905,0.05168 z"
         style="font-style:normal;font-variant:normal;font-weight:normal;font-stretch:normal;font-size:medium;line-height:1.25;font-family:Amiri;-inkscape-font-specification:Amiri;letter-spacing:0px;word-spacing:0px;fill:#1a1a1a;fill-opacity:1;stroke:none;stroke-width:0.26458332"
         id="path864"
         inkscape:connector-curvature="0" />
      <path
         d="m 87.426676,90.986377 q -0.149862,-0.149862 -0.149862,-0.366903 0,-0.217041 0.149862,-0.366903 0.149862,-0.149861 0.366903,-0.149861 0.217041,0 0.366902,0.149861 0.149862,0.149862 0.149862,0.366903 0,0.217041 -0.149862,0.366903 -0.149861,0.149861 -0.366902,0.149861 -0.217041,0 -0.366903,-0.149861 z m 0.842326,2.402954 v 2.160074 q 0,0.599447 0.05168,0.764812 0.02067,0.07235 0.258382,0.118855 0.24288,0.04651 0.392741,0.04651 0.03101,0.04134 0.03101,0.149862 0.0052,0.10852 -0.03101,0.149862 -1.059366,-0.05168 -1.105875,-0.05168 -0.180868,0 -0.3514,0.01033 -0.165365,0.0052 -0.382406,0.02067 -0.217041,0.0155 -0.361735,0.02067 -0.03617,-0.04134 -0.03617,-0.149862 0.0052,-0.108521 0.03617,-0.149862 0.149862,0 0.387574,-0.04651 0.242879,-0.04651 0.263549,-0.118855 0.04134,-0.129191 0.05168,-0.764812 v -1.922363 q 0,-0.413411 -0.05168,-0.537435 -0.03101,-0.07751 -0.19637,-0.124023 -0.165365,-0.04651 -0.279053,-0.05168 -0.10852,-0.01033 -0.19637,-0.01033 -0.02067,-0.02067 -0.02584,-0.124023 0,-0.103353 0.02584,-0.144694 0.883667,-0.118856 1.477946,-0.434082 0.03617,0 0.07235,0.06201 0.04134,0.06201 0.04134,0.103353 -0.07235,0.506429 -0.07235,0.682129 z"
         style="font-style:normal;font-variant:normal;font-weight:normal;font-stretch:normal;font-size:medium;line-height:1.25;font-family:Amiri;-inkscape-font-specification:Amiri;letter-spacing:0px;word-spacing:0px;fill:#1a1a1a;fill-opacity:1;stroke:none;stroke-width:0.26458332"
         id="path866"
         inkscape:connector-curvature="0" />
      <path
         d="m 92.046549,92.221443 q 0.155029,0 0.392741,0.03617 0.237712,0.03617 0.320394,0.06718 0.05168,0 0.05168,-0.217041 v -1.126546 q 0,-0.413411 -0.05168,-0.537435 -0.07751,-0.186035 -0.630453,-0.186035 -0.0052,0 -0.01033,-0.06201 -0.0052,-0.06718 -0.0052,-0.134358 0.0052,-0.06718 0.02584,-0.07235 0.713134,-0.07235 1.46761,-0.413412 0.03617,0 0.07235,0.05684 0.04134,0.05168 0.04134,0.108521 -0.113688,0.330729 -0.113688,0.89917 v 4.423502 q 0,0.842326 0.07235,1.012858 0.03101,0.06201 0.129191,0.103353 0.09819,0.04134 0.196371,0.05684 0.09819,0.01034 0.186035,0.02067 0.09302,0.0052 0.09819,0.0052 0.03101,0.0155 0.03101,0.124024 0,0.031 -0.02584,0.09302 -0.02584,0.06201 -0.05684,0.06201 -0.149862,0.01033 -0.346232,0.04134 -0.191203,0.03101 -0.361735,0.07235 -0.165365,0.04134 -0.310059,0.08268 -0.139526,0.04134 -0.232544,0.06718 l -0.09302,0.02584 q -0.08268,0 -0.08268,-0.196371 v -0.361735 q -0.01033,-0.06718 -0.03101,-0.06201 -0.155029,0.165364 -0.599446,0.392741 -0.444418,0.227376 -0.775147,0.227376 -0.72347,0 -1.27124,-0.640788 -0.54777,-0.645955 -0.54777,-1.570963 0,-0.480591 0.253214,-0.940511 0.253215,-0.459921 0.625285,-0.769979 0.377238,-0.310059 0.800985,-0.496094 0.428914,-0.191203 0.780314,-0.191203 z m -0.330729,0.434082 q -0.563273,0 -0.914673,0.516765 -0.346232,0.511596 -0.346232,1.198893 0,0.764811 0.387573,1.291911 0.392741,0.527099 1.069702,0.527099 0.33073,0 0.61495,-0.139526 0.28422,-0.139527 0.28422,-0.273885 v -2.614828 q 0,-0.180867 -0.335897,-0.341064 -0.335896,-0.165365 -0.759643,-0.165365 z"
         style="font-style:normal;font-variant:normal;font-weight:normal;font-stretch:normal;font-size:medium;line-height:1.25;font-family:Amiri;-inkscape-font-specification:Amiri;letter-spacing:0px;word-spacing:0px;fill:#1a1a1a;fill-opacity:1;stroke:none;stroke-width:0.26458332"
         id="path868"
         inkscape:connector-curvature="0" />
      <path
         d="m 96.170327,92.283455 h 1.333252 q 0.05168,0 0.05168,0.113688 0,0.165365 -0.144694,0.310059 H 96.17033 v 2.707845 q 0,0.847493 0.682129,0.847493 0.341065,0 0.671794,-0.237711 0.03101,0.0155 0.03101,0.07235 0,0.113688 -0.04134,0.155029 -0.103353,0.113688 -0.232544,0.227376 -0.124024,0.108521 -0.361735,0.227377 -0.237712,0.113688 -0.470256,0.113688 -0.211873,0 -0.392741,-0.05168 -0.180867,-0.05168 -0.341064,-0.170532 -0.160197,-0.118856 -0.253215,-0.346232 -0.08785,-0.227376 -0.08785,-0.54777 v -2.997233 h -0.599446 q -0.05168,0 -0.05168,-0.09302 0,-0.02584 0.113689,-0.155029 0.113688,-0.134359 0.155029,-0.1757 h 0.382405 V 91.63233 q 0.08268,-0.09819 0.237712,-0.26355 0.155029,-0.170532 0.268717,-0.294555 0.113689,-0.124024 0.124024,-0.134359 0.02584,-0.02584 0.06201,-0.03617 0.04134,-0.01033 0.07235,0 0.031,0.0052 0.031,0.02584 z"
         style="font-style:normal;font-variant:normal;font-weight:normal;font-stretch:normal;font-size:medium;line-height:1.25;font-family:Amiri;-inkscape-font-specification:Amiri;letter-spacing:0px;word-spacing:0px;fill:#1a1a1a;fill-opacity:1;stroke:none;stroke-width:0.26458332"
         id="path870"
         inkscape:connector-curvature="0" />
      <path
         d="m 100.91939,92.221443 q 0.3359,0 0.56844,0.08785 0.23255,0.08785 0.38241,0.248047 0.14986,0.160197 0.23254,0.43925 0.0879,0.279052 0.11886,0.609782 0.031,0.330729 0.031,0.806152 v 1.136881 q 0,0.599447 0.0517,0.764812 0.0207,0.07235 0.25838,0.118855 0.24288,0.04651 0.39274,0.04651 0.031,0.04134 0.031,0.149862 0.005,0.10852 -0.031,0.149862 -1.05936,-0.05168 -1.10587,-0.05168 -0.18087,0 -0.3514,0.01033 -0.16537,0.0052 -0.38241,0.02067 -0.21704,0.0155 -0.36173,0.02067 -0.0362,-0.04134 -0.0362,-0.149862 0.005,-0.108521 0.0362,-0.149862 0.14986,0 0.38757,-0.04651 0.24288,-0.04651 0.26355,-0.118855 0.0517,-0.165365 0.0517,-0.764812 v -1.033528 q 0,-0.976685 -0.21188,-1.333252 -0.2067,-0.361735 -0.80098,-0.361735 -0.1757,0 -0.41858,0.124023 -0.237712,0.124024 -0.403077,0.258382 -0.160197,0.134359 -0.160197,0.186036 v 2.160074 q 0,0.599447 0.05168,0.764812 0.02067,0.07235 0.258382,0.118855 0.242872,0.04651 0.392742,0.04651 0.031,0.04134 0.031,0.149862 0.005,0.10852 -0.031,0.149862 -1.059368,-0.05168 -1.105877,-0.05168 -0.180867,0 -0.3514,0.01033 -0.165364,0.0052 -0.382405,0.02067 -0.217041,0.0155 -0.361735,0.02067 -0.03617,-0.04134 -0.03617,-0.149862 0.0052,-0.108521 0.03617,-0.149862 0.149861,0 0.387573,-0.04651 0.242879,-0.04651 0.26355,-0.118855 0.05168,-0.165365 0.05168,-0.764812 v -4.568196 q 0,-0.413411 -0.05168,-0.537435 -0.07751,-0.186035 -0.630453,-0.186035 -0.0052,0 -0.01034,-0.06201 -0.0052,-0.06718 -0.0052,-0.134358 0.0052,-0.06718 0.02584,-0.07235 0.713134,-0.07235 1.46761,-0.413412 0.03617,0 0.07235,0.05684 0.04134,0.05168 0.04134,0.108521 -0.113688,0.330729 -0.113688,0.89917 v 2.335774 q 0,0.02067 0.03101,0.02067 0.01033,0 0.03101,-0.02067 0.206706,-0.227376 0.635625,-0.490926 0.42891,-0.26355 0.75964,-0.26355 z"
         style="font-style:normal;font-variant:normal;font-weight:normal;font-stretch:normal;font-size:medium;line-height:1.25;font-family:Amiri;-inkscape-font-specification:Amiri;letter-spacing:0px;word-spacing:0px;fill:#1a1a1a;fill-opacity:1;stroke:none;stroke-width:0.26458332"
         id="path872"
         inkscape:connector-curvature="0" />
      <path
         d="m 103.74092,96.691455 q -0.17053,-0.1757 -0.17053,-0.408244 0,-0.232544 0.17053,-0.392741 0.1757,-0.165365 0.40825,-0.165365 0.23254,0 0.39274,0.165365 0.16536,0.160197 0.16536,0.392741 0,0.232544 -0.16536,0.408244 -0.1602,0.170532 -0.39274,0.170532 -0.23255,0 -0.40825,-0.170532 z"
         style="font-style:normal;font-variant:normal;font-weight:normal;font-stretch:normal;font-size:medium;line-height:1.25;font-family:Amiri;-inkscape-font-specification:Amiri;letter-spacing:0px;word-spacing:0px;fill:#999999;fill-opacity:1;stroke:none;stroke-width:0.26458332"
         id="path874"
         inkscape:connector-curvature="0" />
      <path
         d="m 106.05603,90.986377 q -0.14986,-0.149862 -0.14986,-0.366903 0,-0.217041 0.14986,-0.366903 0.14986,-0.149861 0.3669,-0.149861 0.21704,0 0.3669,0.149861 0.14987,0.149862 0.14987,0.366903 0,0.217041 -0.14987,0.366903 -0.14986,0.149861 -0.3669,0.149861 -0.21704,0 -0.3669,-0.149861 z m 0.11886,5.296834 v -2.656169 q 0,-0.413411 -0.0517,-0.537435 -0.031,-0.07751 -0.19637,-0.124023 -0.16537,-0.04651 -0.27905,-0.05168 -0.10852,-0.01033 -0.19637,-0.01033 -0.0207,-0.02067 -0.0258,-0.124023 0,-0.103353 0.0258,-0.144694 0.88366,-0.118856 1.47794,-0.434082 0.0362,0 0.0724,0.06201 0.0413,0.06201 0.0413,0.103353 -0.0724,0.506429 -0.0724,0.682129 v 0.3514 2.645833 q 0,0.568441 -0.12402,1.054199 -0.11886,0.485759 -0.29972,0.806153 -0.18087,0.325561 -0.43409,0.583943 -0.24804,0.26355 -0.47025,0.403077 -0.22221,0.144694 -0.45992,0.242879 -0.093,-0.05684 -0.13436,-0.15503 -0.0103,-0.0155 -0.0103,-0.04134 0,-0.02067 0.0103,-0.03101 0.21187,-0.149861 0.34623,-0.273885 0.13953,-0.118855 0.29972,-0.341064 0.16537,-0.217041 0.25839,-0.470256 0.093,-0.253214 0.15503,-0.651123 0.0672,-0.39274 0.0672,-0.888834 z"
         style="font-style:normal;font-variant:normal;font-weight:normal;font-stretch:normal;font-size:medium;line-height:1.25;font-family:Amiri;-inkscape-font-specification:Amiri;letter-spacing:0px;word-spacing:0px;fill:#999999;fill-opacity:1;stroke:none;stroke-width:0.26458332"
         id="path876"
         inkscape:connector-curvature="0" />
      <path
         d="m 109.71989,92.231779 q 0.23254,0 0.57361,0.06201 0.34106,0.05684 0.48059,0.07235 0.10335,0.465088 0.12402,1.136882 0,0.05168 -0.10335,0.05168 -0.11369,0 -0.1757,-0.05168 -0.093,-0.346232 -0.33073,-0.645956 -0.23771,-0.304891 -0.53744,-0.304891 -0.35656,0 -0.54777,0.180868 -0.18603,0.180867 -0.18603,0.470255 0,0.129192 0.0362,0.24288 0.0413,0.10852 0.0879,0.180867 0.0465,0.07235 0.15503,0.160197 0.11369,0.08785 0.1757,0.129191 0.062,0.04134 0.22221,0.134359 0.1602,0.08785 0.22221,0.124023 0.0465,0.02584 0.2067,0.118856 0.1602,0.09302 0.23255,0.144694 0.0775,0.04651 0.21704,0.144694 0.14469,0.09302 0.21704,0.1757 0.0724,0.07751 0.15503,0.191203 0.0879,0.10852 0.12402,0.232544 0.0362,0.118856 0.0362,0.253214 0,0.61495 -0.47543,1.023194 -0.47025,0.403076 -1.11621,0.403076 -0.21187,0 -0.39791,-0.03101 -0.18086,-0.02584 -0.42891,-0.08268 -0.24288,-0.05684 -0.38241,-0.08268 -0.062,-0.160197 -0.11885,-0.511596 -0.0569,-0.356568 -0.0569,-0.563273 0.0827,-0.06201 0.18604,-0.06201 0.062,0 0.093,0.02067 0.10335,0.366903 0.41858,0.676962 0.31522,0.304891 0.69763,0.304891 0.32556,0 0.53227,-0.196371 0.21187,-0.201538 0.21187,-0.54777 0,-0.180867 -0.0672,-0.325561 -0.062,-0.144694 -0.21187,-0.268718 -0.14987,-0.124023 -0.26872,-0.19637 -0.11886,-0.07751 -0.36174,-0.201538 -0.24288,-0.129192 -0.3514,-0.196371 -0.36173,-0.206706 -0.5736,-0.465088 -0.21188,-0.26355 -0.21188,-0.640787 0,-0.552938 0.44959,-0.904338 0.44958,-0.356567 1.04903,-0.356567 z"
         style="font-style:normal;font-variant:normal;font-weight:normal;font-stretch:normal;font-size:medium;line-height:1.25;font-family:Amiri;-inkscape-font-specification:Amiri;letter-spacing:0px;word-spacing:0px;fill:#999999;fill-opacity:1;stroke:none;stroke-width:0.26458332"
         id="path878"
         inkscape:connector-curvature="0" />
    </g>
  </g>
</svg>
